<?xml version="1.0" encoding="utf-8"?>
<!-- Generator: Adobe Illustrator 16.0.0, SVG Export Plug-In . SVG Version: 6.00 Build 0)  -->
<!DOCTYPE svg PUBLIC "-//W3C//DTD SVG 1.1//EN" "http://www.w3.org/Graphics/SVG/1.1/DTD/svg11.dtd">
<svg version="1.1" id="Layer_1" xmlns="http://www.w3.org/2000/svg" xmlns:xlink="http://www.w3.org/1999/xlink" x="0px" y="0px"
	 width="72px" height="20px" viewBox="0 0 72 20" enable-background="new 0 0 72 20" xml:space="preserve">
<g>
	<path fill="#777777" d="M13.818,18v-0.71h0.002v0.001c0.6,0,1.146-0.245,1.539-0.64c0.396-0.394,0.639-0.938,0.639-1.54h-0.001l0,0
		v-0.002h0.001c0-0.6-0.245-1.145-0.639-1.539s-0.939-0.639-1.541-0.639v0.002l0,0v-0.711l0,0v0.002
		c0.799,0,1.521,0.323,2.043,0.847c0.521,0.521,0.845,1.242,0.845,2.038h0.002v0.002l0,0h-0.002c0,0.798-0.323,1.521-0.847,2.043
		c-0.521,0.521-1.242,0.844-2.039,0.844V18H13.818L13.818,18z M13.818,7.777v-0.71h0.002v0.001c0.6,0,1.146-0.245,1.539-0.639
		c0.396-0.394,0.639-0.938,0.639-1.539h-0.001V4.889V4.887h0.001c0-0.601-0.245-1.145-0.639-1.54
		c-0.394-0.394-0.939-0.638-1.541-0.638v0.001l0,0V2l0,0v0.001c0.799,0,1.521,0.324,2.043,0.847
		c0.521,0.521,0.845,1.243,0.845,2.039h0.002v0.001V4.89h-0.002c0,0.797-0.323,1.519-0.847,2.042
		c-0.521,0.521-1.242,0.844-2.039,0.845v0.001H13.818z M13.818,2v0.711h-0.001V2.709c-0.601,0-1.146,0.245-1.539,0.639
		c-0.394,0.394-0.64,0.938-0.64,1.539h0.002v0.001V4.89h-0.002c0,0.601,0.246,1.145,0.641,1.54c0.395,0.394,0.938,0.638,1.539,0.638
		V7.066l0,0v0.71l0,0V7.776c-0.798,0-1.52-0.324-2.042-0.847c-0.461-0.461-0.767-1.079-0.833-1.767V4.616
		c0.066-0.689,0.372-1.308,0.835-1.77c0.521-0.521,1.242-0.844,2.039-0.845L13.818,2L13.818,2L13.818,2z M13.818,12.223v0.711
		h-0.001v-0.002c-0.601,0-1.146,0.245-1.539,0.64s-0.64,0.938-0.64,1.54h0.002l0,0v0.002h-0.002c0,0.6,0.246,1.145,0.641,1.539
		c0.395,0.394,0.938,0.639,1.539,0.639V17.29l0,0V18l0,0v-0.002c-0.798,0-1.52-0.323-2.042-0.846
		c-0.461-0.462-0.767-1.079-0.833-1.768v-0.546c0.066-0.688,0.372-1.308,0.835-1.771c0.521-0.521,1.242-0.844,2.039-0.844
		L13.818,12.223L13.818,12.223L13.818,12.223z M10.943,11.658v-0.195C10.963,11.526,10.963,11.595,10.943,11.658L10.943,11.658z
		 M10.943,8.076V7.88C10.963,7.944,10.963,8.012,10.943,8.076z M3.597,12.223L3.597,12.223v0.002c0.798,0,1.52,0.323,2.042,0.847
		c0.521,0.521,0.845,1.242,0.845,2.038h0.001v0.002l0,0H6.483c0,0.798-0.323,1.521-0.847,2.043
		c-0.521,0.521-1.242,0.844-2.039,0.844V18H3.597v-0.71h0.001v0.001c0.601,0,1.145-0.245,1.54-0.64
		c0.394-0.394,0.638-0.938,0.638-1.54H5.774l0,0v-0.002h0.001c0-0.6-0.244-1.145-0.639-1.539s-0.939-0.639-1.54-0.639v0.002l0,0
		V12.223L3.597,12.223z M10.943,4.616v0.546c-0.008-0.089-0.012-0.181-0.012-0.272H10.93V4.889V4.888h0.002
		C10.932,4.796,10.936,4.706,10.943,4.616L10.943,4.616z M10.943,7.88v0.196c-0.016,0.056-0.045,0.109-0.089,0.153l-1.54,1.54
		l1.54,1.54c0.044,0.045,0.073,0.099,0.089,0.154v0.195c-0.016,0.056-0.045,0.109-0.089,0.153c-0.139,0.138-0.364,0.138-0.503,0
		l-1.54-1.541l-1.54,1.541c-0.139,0.139-0.364,0.139-0.503,0s-0.139-0.364,0-0.503l1.541-1.54l-1.541-1.54
		c-0.139-0.139-0.139-0.364,0-0.503s0.364-0.139,0.503,0l1.54,1.541l1.54-1.541c0.139-0.139,0.364-0.139,0.503,0
		C10.898,7.771,10.928,7.824,10.943,7.88L10.943,7.88z M10.943,14.839v0.546c-0.008-0.089-0.012-0.18-0.012-0.271H10.93v-0.002l0,0
		h0.002C10.932,15.019,10.936,14.928,10.943,14.839L10.943,14.839z M3.597,7.777v-0.71h0.001v0.001c0.601,0,1.145-0.245,1.54-0.639
		C5.531,6.035,5.775,5.49,5.775,4.89H5.774V4.889V4.887h0.001c0-0.601-0.244-1.145-0.639-1.54c-0.395-0.394-0.939-0.638-1.54-0.638
		v0.001l0,0V2l0,0v0.001c0.798,0,1.52,0.324,2.042,0.847C6.16,3.369,6.483,4.091,6.483,4.887h0.001v0.001V4.89H6.483
		c0,0.797-0.323,1.519-0.847,2.042C5.115,7.452,4.395,7.775,3.597,7.777L3.597,7.777L3.597,7.777z M3.597,18L3.597,18l-0.001-0.002
		c-0.798,0-1.52-0.323-2.042-0.846C1.032,16.631,0.71,15.91,0.71,15.113H0.708v-0.002l0,0H0.71c0-0.798,0.323-1.521,0.846-2.043
		c0.521-0.521,1.242-0.844,2.039-0.844v-0.002h0.002v0.711H3.595v-0.002c-0.601,0-1.145,0.245-1.539,0.64s-0.639,0.938-0.639,1.54
		h0.002l0,0v0.002H1.417c0,0.6,0.244,1.145,0.639,1.539c0.395,0.394,0.938,0.639,1.54,0.639V17.29h0.001V18L3.597,18z M3.597,2
		v0.711H3.595V2.709c-0.601,0-1.145,0.245-1.539,0.639C1.661,3.743,1.417,4.287,1.417,4.888h0.002v0.001V4.89H1.417
		c0,0.601,0.244,1.145,0.639,1.54c0.395,0.394,0.938,0.638,1.54,0.638V7.066h0.001v0.71H3.596V7.776
		c-0.798,0-1.52-0.324-2.042-0.847C1.032,6.408,0.71,5.687,0.71,4.89H0.708V4.889V4.888H0.71c0-0.797,0.323-1.52,0.846-2.042
		c0.521-0.521,1.242-0.844,2.039-0.845V2H3.597z"/>
	<path fill="#777777" d="M51.188,5.693c0.188,0.093,0.373,0.179,0.56,0.257c0.521,0.257,1.311,0.522,2.368,0.793
		c0.195,0.046,0.297,0.166,0.305,0.363c-0.014,0.287-0.149,0.437-0.407,0.453c-0.099,0-0.317-0.044-0.658-0.135
		c-0.753-0.224-1.477-0.509-2.167-0.851V5.693L51.188,5.693z M51.188,14.404V13.6h0.467h0.682v-1.904
		c0-0.188-0.091-0.283-0.271-0.283h-0.41h-0.352l-0.115,0.199v-0.958h1.239c0.521,0,0.781,0.226,0.781,0.681V13.6h0.714
		c0.271,0,0.408,0.132,0.408,0.396c0,0.272-0.137,0.408-0.408,0.408H51.188L51.188,14.404z M51.188,10.007V9.338h0.57
		c0.175,0,0.261-0.125,0.261-0.375V8.646c0-0.204-0.086-0.306-0.261-0.306h-0.57V7.649h0.979c0.446,0,0.67,0.202,0.67,0.602v1.133
		c0,0.416-0.224,0.623-0.67,0.623H51.188z M50.197,5.125c0.332,0.214,0.662,0.403,0.99,0.568v0.88l-0.019-0.01
		c-0.015,0.188-0.12,0.282-0.317,0.282h-0.654V6.2h0.281c-0.094-0.052-0.188-0.104-0.281-0.159V5.125L50.197,5.125z M51.188,7.649
		V8.34h-0.99V7.649H51.188L51.188,7.649z M51.188,9.338v0.669h-0.99V9.338H51.188L51.188,9.338z M51.188,10.653v0.958l-0.99,1.716
		v-1.642l0.157-0.273h-0.157v-0.759H51.188L51.188,10.653z M51.188,13.6v0.805h-0.99V13.6h0.475H51.188z M48.93,4.22
		c0.045,0.025,0.094,0.058,0.143,0.098c0.378,0.299,0.753,0.568,1.125,0.807v0.917c-0.371-0.216-0.733-0.455-1.09-0.714
		c-0.066-0.051-0.128-0.092-0.178-0.125V4.22L48.93,4.22z M50.197,6.846H48.93V6.2h1.268V6.846L50.197,6.846z M50.197,7.649V8.34
		H48.93V7.649H50.197L50.197,7.649z M50.197,9.338v0.669H48.93V9.338H50.197L50.197,9.338z M50.197,10.653v0.759h-0.341H48.93
		v-0.759H50.197L50.197,10.653z M50.197,11.686v1.642L50.039,13.6h0.158v0.805H48.93V13.6h0.162L50.197,11.686z M48.722,4.159
		c0.065,0,0.135,0.021,0.208,0.061v0.982c-0.096-0.061-0.164-0.092-0.208-0.092c-0.083,0-0.173,0.043-0.271,0.126
		c-0.271,0.226-0.533,0.431-0.789,0.612V4.894c0.237-0.179,0.475-0.371,0.709-0.575C48.484,4.214,48.602,4.159,48.722,4.159
		L48.722,4.159z M48.93,6.846h-1.269V6.2h1.269V6.846L48.93,6.846z M48.93,7.649V8.34h-1.269V7.649H48.93L48.93,7.649z M48.93,9.338
		v0.669h-1.269V9.338H48.93L48.93,9.338z M48.93,10.653v0.759h-0.162l-1.106,1.915v-1.642l0.157-0.273h-0.157v-0.759H48.93
		L48.93,10.653z M48.93,13.6v0.805h-1.269V13.6h0.415H48.93z M47.661,6.846h-0.753c-0.074,0-0.135-0.012-0.185-0.036V5.533
		c0.313-0.192,0.628-0.405,0.938-0.64v0.956c-0.179,0.128-0.354,0.245-0.523,0.351h0.523V6.846L47.661,6.846z M47.661,7.649V8.34
		h-0.938V7.649H47.661L47.661,7.649z M47.661,9.338v0.669h-0.938V9.338H47.661L47.661,9.338z M47.661,10.653v0.759h-0.39h-0.548
		v-0.759H47.661L47.661,10.653z M47.661,11.686v1.642L47.505,13.6h0.156v0.805h-0.938V13.31L47.661,11.686z M46.724,6.81
		c-0.096-0.048-0.144-0.142-0.144-0.281c-0.09,0.052-0.18,0.103-0.271,0.147c-0.718,0.356-1.391,0.634-2.018,0.839
		c-0.212,0.09-0.37,0.135-0.475,0.135c-0.258-0.015-0.39-0.166-0.397-0.452c0-0.189,0.101-0.308,0.305-0.352
		c1.15-0.4,2.007-0.756,2.572-1.065c0.144-0.078,0.284-0.161,0.427-0.247V6.81L46.724,6.81z M46.724,7.649h-1.14
		c-0.446,0-0.67,0.202-0.67,0.602v1.133c0,0.416,0.224,0.623,0.67,0.623h1.14V9.338h-0.721c-0.188,0-0.284-0.125-0.284-0.375V8.646
		c0-0.204,0.096-0.306,0.284-0.306h0.721V7.649L46.724,7.649z M46.724,10.653v0.759h-0.042h-0.816c-0.157,0-0.237,0.096-0.237,0.283
		V13.6h0.929l0.167-0.29v1.095h-2.669c-0.281,0-0.42-0.136-0.42-0.408c0-0.265,0.139-0.396,0.42-0.396h0.714v-2.266
		c0-0.455,0.245-0.681,0.736-0.681H46.724z"/>
	<path fill="#777777" d="M28.466,5.985h1.349c0.423,0,0.634,0.253,0.634,0.76c0,0.891-0.089,1.721-0.271,2.493
		c-0.189,0.966-0.494,1.85-0.917,2.651c-0.016,0.028-0.03,0.056-0.046,0.079c0.18,0.159,0.338,0.298,0.464,0.42
		c0.484,0.392,0.726,0.701,0.726,0.928c-0.008,0.129-0.042,0.226-0.102,0.294c-0.069,0.069-0.159,0.11-0.271,0.126
		c-0.19,0-0.364-0.076-0.523-0.227c-0.286-0.272-0.555-0.53-0.803-0.772c-0.078,0.106-0.158,0.212-0.239,0.313v-1.746l0.103,0.086
		c0.377-0.68,0.658-1.47,0.838-2.369c0.146-0.73,0.216-1.384,0.216-1.958c0-0.174-0.058-0.261-0.169-0.261h-0.987V5.985
		L28.466,5.985z M36.248,9.147c0.273,0,0.408,0.135,0.408,0.407c0,0.273-0.135,0.409-0.408,0.409h-1.199
		c0.22,0.709,0.328,1.423,0.328,2.141c0,0.446-0.116,0.891-0.351,1.338c-0.188,0.393-0.454,0.67-0.794,0.837
		c-0.293,0.182-0.649,0.272-1.063,0.272c-0.56,0-1.195-0.186-1.905-0.555c-0.262-0.091-0.399-0.237-0.407-0.443
		c0.008-0.316,0.146-0.487,0.407-0.508c0.991,0.399,1.605,0.6,1.848,0.6c0.212,0,0.41-0.057,0.602-0.17
		c0.227-0.112,0.41-0.302,0.555-0.566c0.136-0.242,0.203-0.509,0.203-0.805c0-0.754-0.083-1.396-0.247-1.927
		c-0.025-0.083-0.052-0.154-0.08-0.214h-3.117c-0.271,0-0.409-0.136-0.409-0.409c0-0.272,0.138-0.407,0.409-0.407h2.697
		c-0.091-0.122-0.179-0.234-0.261-0.341c-0.294-0.354-0.622-0.642-0.986-0.86c-0.112-0.083-0.17-0.167-0.17-0.25
		c0.016-0.28,0.181-0.431,0.498-0.454c0.067,0,0.146,0.03,0.237,0.091c0.039-0.029,0.08-0.061,0.127-0.091
		c0.384-0.204,0.675-0.385,0.872-0.544c0.277-0.21,0.524-0.438,0.737-0.68c0.157-0.18,0.237-0.302,0.237-0.362
		s-0.047-0.091-0.138-0.091h-3.657c-0.242,0-0.364-0.12-0.364-0.361c0-0.234,0.122-0.352,0.364-0.352h4.35
		c0.393,0,0.589,0.147,0.589,0.443c0,0.164-0.073,0.354-0.216,0.566c-0.219,0.331-0.543,0.694-0.975,1.087
		c-0.393,0.355-0.805,0.657-1.232,0.906c0.149,0.151,0.293,0.31,0.428,0.476c0.221,0.257,0.404,0.53,0.557,0.816H36.248z
		 M26.631,5.985h0.793c0.023-0.416,0.035-0.872,0.035-1.371c0-0.273,0.135-0.408,0.405-0.408c0.266,0,0.398,0.135,0.398,0.408
		c0,0.499-0.011,0.955-0.034,1.371h0.237v0.816h-0.305c-0.039,0.37-0.088,0.702-0.147,0.997c-0.121,0.573-0.329,1.273-0.625,2.097
		c-0.051,0.12-0.079,0.223-0.079,0.305c0,0.06,0.087,0.174,0.263,0.341c0.328,0.281,0.625,0.535,0.894,0.763v1.746
		c-0.424,0.532-0.911,1.014-1.461,1.445c-0.128,0.067-0.239,0.101-0.33,0.101c-0.302,0-0.451-0.151-0.451-0.453
		c0-0.09,0.044-0.185,0.134-0.284c0.719-0.559,1.293-1.129,1.724-1.708c-0.467-0.447-0.891-0.832-1.269-1.157
		c-0.205-0.205-0.308-0.468-0.308-0.793c0-0.054,0.028-0.154,0.079-0.305c0.317-0.726,0.53-1.402,0.635-2.029
		c0.062-0.309,0.114-0.665,0.159-1.065h-0.747c-0.273,0-0.407-0.136-0.407-0.408S26.357,5.985,26.631,5.985z"/>
	<path fill="#777777" d="M69.354,11.624h1.368c0.38,0,0.57,0.181,0.57,0.536v1.616c0,0.394-0.19,0.593-0.57,0.593h-1.368v-0.761
		h0.922c0.141,0,0.212-0.094,0.212-0.278v-0.722c0-0.155-0.071-0.234-0.212-0.234h-0.922V11.624L69.354,11.624z M69.354,7.633v-0.76
		h0.922c0.141,0,0.212-0.093,0.212-0.279V5.828c0-0.157-0.071-0.235-0.212-0.235h-0.922v-0.75h1.368c0.38,0,0.57,0.18,0.57,0.537
		v1.662c0,0.394-0.19,0.592-0.57,0.592H69.354z M67.982,11.624h1.371v0.75H68.43c-0.141,0-0.213,0.08-0.213,0.234v0.722
		c0,0.184,0.07,0.278,0.213,0.278h0.924v0.761h-1.371c-0.378,0-0.57-0.197-0.57-0.593V12.16
		C67.412,11.803,67.604,11.624,67.982,11.624L67.982,11.624z M69.354,4.843v0.75H68.43c-0.141,0-0.213,0.08-0.213,0.235v0.767
		c0,0.184,0.07,0.279,0.213,0.279h0.924v0.76h-1.371c-0.378,0-0.57-0.197-0.57-0.592V5.379c0-0.357,0.191-0.537,0.57-0.537H69.354
		L69.354,4.843z M63.873,14.369v-0.761h0.922c0.143,0,0.213-0.094,0.213-0.278v-0.722c0-0.155-0.072-0.234-0.213-0.234h-0.922v-0.75
		h1.369c0.38,0,0.572,0.181,0.572,0.536v1.616c0,0.394-0.192,0.593-0.572,0.593H63.873L63.873,14.369z M63.873,7.633v-0.76h0.922
		c0.143,0,0.213-0.093,0.213-0.279V5.828c0-0.157-0.072-0.235-0.213-0.235h-0.922v-0.75h1.369c0.38,0,0.572,0.18,0.572,0.537v1.662
		c0,0.394-0.192,0.592-0.572,0.592H63.873L63.873,7.633z M64.846,8.701c-0.171-0.146-0.191-0.403-0.044-0.574
		c0.146-0.17,0.403-0.189,0.573-0.043l1.189,1.022l1.186-1.021c0.169-0.146,0.425-0.127,0.572,0.042
		c0.146,0.169,0.128,0.426-0.041,0.572l-1.096,0.943l1.096,0.943c0.17,0.147,0.189,0.403,0.042,0.574
		c-0.146,0.17-0.403,0.189-0.573,0.043l-1.188-1.022L65.375,11.2c-0.169,0.146-0.425,0.128-0.572-0.041
		c-0.146-0.169-0.128-0.426,0.043-0.572l1.094-0.943L64.846,8.701z M63.873,4.843v0.75H62.95c-0.141,0-0.213,0.08-0.213,0.235v0.767
		c0,0.184,0.072,0.279,0.213,0.279h0.923v0.76h-1.37c-0.378,0-0.57-0.197-0.57-0.592V5.379c0-0.357,0.19-0.537,0.57-0.537H63.873
		L63.873,4.843z M63.873,11.624v0.75H62.95c-0.141,0-0.213,0.08-0.213,0.234v0.722c0,0.184,0.072,0.278,0.213,0.278h0.923v0.761
		h-1.37c-0.378,0-0.57-0.197-0.57-0.593V12.16c0-0.357,0.19-0.536,0.57-0.536H63.873z"/>
</g>
</svg>
