<svg version="1" xmlns="http://www.w3.org/2000/svg" width="1365.333" height="1365.333" viewBox="0 0 1024.000000 1024.000000"><path d="M210 94.6c-26.7 3-44 7.9-62.9 18-56.9 30.2-89.1 91.3-82 155.1 2.9 26.5 13.1 52.2 29.9 75.5 6.5 9.1 24.2 26.3 34.3 33.5 54.2 38.3 126 38.3 180.4 0 10.1-7.1 27.7-24.3 34.3-33.5 16.1-22.4 25.8-45.7 29.6-71.4 2.2-14.7 1.5-39-1.5-53-13.6-63.4-63.7-111.6-127.1-122.2-9.8-1.6-28.8-2.7-35-2zm31.8 41c39.8 7.1 75.1 37.9 88.1 76.9 11.9 35.8 5.9 76.4-15.8 105.9-43.6 59.5-128.6 65.2-179.2 11.9-15.7-16.4-25.4-35-29.9-57.3-3.1-14.8-2.5-37.9 1.3-52.3 9.9-37.4 38.1-67.8 75.2-81 18.2-6.5 39.1-7.9 60.3-4.1zM754.6 95c-25 2.4-52 12.3-74.1 27.4-12.2 8.3-31.3 27.5-39.4 39.6-18.5 27.7-27.1 55.7-27.1 88 0 48.7 21.3 92.5 59.6 122.6 52.5 41.2 125.6 43.9 181.9 6.7 13.3-8.8 33.7-29.1 42.4-42.2C930 288.6 933.6 230 907.4 179c-22.3-43.5-64.3-74.2-112.4-82.4-11.3-1.9-29.4-2.6-40.4-1.6zm25.5 39.1c51.8 5.2 92.7 41.9 103.5 92.9 2.4 11.7 2.5 34.4 0 45.8-9 42.2-39.4 76.3-78.7 88.5-14.6 4.5-19.5 5.2-36.9 5.1-14.3-.1-17.8-.4-26.1-2.6-29.3-7.9-51.7-23.1-68.1-46.3-14.5-20.5-21.2-41.9-21.2-67.5 0-22.4 4.5-39.4 15.4-58.3 18-31.6 52.2-53.8 88.6-57.6 11.4-1.2 12.2-1.2 23.5 0zM394.9 399c-4.7 2.5-8.6 7.1-9.9 11.8-1.3 4.6-1.2 5.7.1 10.7.9 3.4 7.6 10.5 44 47 23.6 23.7 42.9 43.5 42.9 44s-19.3 20.3-42.9 44c-36.4 36.5-43.1 43.6-44 47-1.3 5-1.4 6.1-.1 10.7 3 10.6 15.4 16.5 25.8 12.3 2.5-1.1 17.2-15.1 46.5-44.3l42.7-42.7 42.8 42.7c23.5 23.4 44.2 43.4 46.1 44.3 2.4 1.2 5 1.6 8.7 1.3 12.8-1.1 20.7-13.3 16.6-25.8-.9-2.6-12.7-15-44.2-46.5l-43-43 43.4-43.5c41.6-41.7 43.4-43.7 44.4-48.3 1.4-6.9-.8-14.7-5.5-18.9-4.7-4.3-13.9-6-20-3.8-1.5.6-22.3 20.5-46 44.3L500 485.5l-42.7-42.7c-23.6-23.4-44.2-43.3-46-44.2-4.3-2.2-12-2-16.4.4zM200.1 645.1c-4.1.6-12.5 2.3-18.8 4-58.5 15-101.6 60.6-114.4 120.9-3.3 15.3-3.3 42.8-.1 58.7 4.5 22.4 15 46.4 27.6 63.3 8.3 11.1 26.9 29 37.6 36.2 17.4 11.6 36 19.4 57 23.9 8.9 2 13.5 2.3 30.5 2.3s21.6-.3 30.5-2.3c30.5-6.5 54.9-19.3 76.3-40 16-15.5 24.7-27.5 33.5-46.1 6-12.7 9.6-22.8 12.5-35.8 1.8-8.2 2.1-12.8 2.1-30.2 0-17.5-.3-22-2.2-30.7-7-32.1-20.2-56.3-43.2-79.4-22.8-22.9-48.4-36.6-79.8-43-11.5-2.3-38-3.3-49.1-1.8zm37.2 39.4c25.4 3.8 48.6 16 66.8 35.2 21.1 22.1 31.9 49.4 31.9 80.4 0 45.3-25.9 85.8-67.4 105.5-68.8 32.6-151.1-10.6-164.3-86.1-2.3-13.5-1.3-36.9 2.1-49.2 3.3-12 6.6-19.9 12-29.2 24.5-41.5 71.2-63.8 118.9-56.6zM753 644.6c-26.8 3.4-53.2 13.7-74.7 29.1-11.9 8.4-30.1 27.1-38.1 39.2-17.3 25.8-26.2 55.2-26.2 86.1 0 15.9 1.1 25.4 4.6 39.3 14.5 57.9 61.9 102.3 121.9 114.4 13.7 2.7 45.4 2.5 59.1-.5 64-13.8 111.1-62.2 123.1-126.7 2.5-13.7 2.3-39.8-.5-54-8.5-43-32.1-78.3-68.4-102.2-16.4-10.8-33.9-18-54.3-22.3-9.8-2-37.8-3.5-46.5-2.4zm31.5 39.5c25.8 3.6 48.3 14.6 66.6 32.9 10.1 10.1 16.1 18.2 22.2 30.5 8.6 17.2 12 31.7 12.1 51.5.1 25.2-5.7 45-19.2 65.5-5.8 8.7-19.4 23-28.1 29.4-38 28.1-90.2 30.1-130.7 5-4.8-3-13.1-9.6-18.6-14.8-56.7-54-45.9-146 21.7-185.2 22.3-13 48.9-18.3 74-14.8z"/></svg>